<svg id="Layer_1" data-name="Layer 1" xmlns="http://www.w3.org/2000/svg" viewBox="0 0 305 233"><defs><style>.cls-1{fill:#030303;stroke-width:2.24px;}.cls-1,.cls-2,.cls-3,.cls-4{stroke:#252525;}.cls-1,.cls-2,.cls-3,.cls-4,.cls-5{stroke-miterlimit:10;}.cls-2{fill:#070b0a;stroke-width:1.15px;}.cls-3{fill:#060505;}.cls-3,.cls-4{stroke-width:4.48px;}.cls-4{fill:#cdb86b;}.cls-5{fill:none;stroke:#000;stroke-linecap:round;stroke-width:4.82px;}.cls-6{opacity:0.86;}.cls-7{fill:#231b14;}</style></defs><title>bumble_anatomy_external</title><path class="cls-1" d="M196.48,55c1.19-.47,6.19-2.44,10.31.08,1,.6,2.54,1.56,2.5,2.82-.09,3.41-12,5.28-13.64,5.53-4,.63-6.91,1.08-7.52-.09C187.24,61.66,191.52,57,196.48,55Z"/><path class="cls-1" d="M173.43,84.84c-3-1.34.15-10.75,3.46-16.46,1.19-2,6.08-10.48,10.88-10.27,3,.13,5.09,3.62,5.42,6.57C194.3,74.38,177.53,86.65,173.43,84.84Z"/><path class="cls-1" d="M207.58,53.85c.74-.76,2.48-2,3.92-1.23a2.15,2.15,0,0,1,1.22,2c-.22,1.27-2.45,1.67-3.77,1.91-1,.19-2.08.38-2.43-.12S206.92,54.52,207.58,53.85Z"/><path class="cls-1" d="M210.83,52.23c.82-.69,2.67-1.74,4-.84a2.13,2.13,0,0,1,1,2.1c-.34,1.24-2.59,1.42-3.94,1.53-1,.09-2.11.17-2.4-.36S210.12,52.83,210.83,52.23Z"/><path class="cls-1" d="M214.35,51c.82-.69,2.67-1.74,4-.84a2.14,2.14,0,0,1,1,2.1c-.34,1.24-2.59,1.42-3.94,1.53-1,.09-2.11.17-2.4-.36S213.64,51.58,214.35,51Z"/><path class="cls-1" d="M217.32,49.87c.69-.82,2.34-2.17,3.82-1.52a2.15,2.15,0,0,1,1.36,1.9c-.13,1.28-2.32,1.85-3.62,2.18-1,.26-2,.53-2.44,0S216.72,50.58,217.32,49.87Z"/><path class="cls-1" d="M221.66,48.62a12.31,12.31,0,0,1,3.86-5.15c1-.77,2.33-1.36,2.64-1,.51.58-1.86,3.43-3.27,5.13a12.8,12.8,0,0,1-2.93,3C221.1,50.93,221.3,49.59,221.66,48.62Z"/><path class="cls-1" d="M197.91,140c3.8,1.69,3.59,5.9,6.61,13.09,3.75,8.93,7.46,10.49,8.74,18.68.34,2.18.84,5.61-.75,6.63-2.39,1.52-8-3.37-8.9-4.21C192,163.35,187.77,143.09,193,139.84,194.84,138.66,197.57,139.85,197.91,140Z"/><path class="cls-1" d="M176.57,117.82c3-1.37,6.13.21,10.27,2.31s9.11,4.64,10.59,10.08a13.9,13.9,0,0,1-1,9.25c-.62,1.4-2.31,5.24-4.45,5.18s-2-4.06-6.21-7.86c-1.79-1.61-3.86-2.65-8-4.73-3.91-2-4.68-1.94-5.37-3.08C170.55,125.9,172.48,119.66,176.57,117.82Z"/><path class="cls-1" d="M213.4,177c.84.66,2.25,2.26,1.66,3.77a2.15,2.15,0,0,1-1.85,1.42c-1.28-.07-1.93-2.24-2.32-3.53-.3-1-.6-2-.14-2.43S212.66,176.46,213.4,177Z"/><path class="cls-1" d="M215.37,180.09c.77.74,2,2.47,1.28,3.91a2.16,2.16,0,0,1-2,1.24c-1.27-.2-1.7-2.43-2-3.75-.2-1-.4-2.08.1-2.43S214.69,179.45,215.37,180.09Z"/><path class="cls-1" d="M217,183.45c.77.74,2,2.47,1.28,3.91a2.16,2.16,0,0,1-2,1.24c-1.27-.2-1.7-2.42-2-3.75-.2-1-.4-2.07.1-2.43S216.32,182.81,217,183.45Z"/><path class="cls-1" d="M218.43,186.28c.89.6,2.41,2.09,1.92,3.63a2.13,2.13,0,0,1-1.74,1.56c-1.28,0-2.08-2.1-2.56-3.36-.37-1-.75-2-.31-2.41S217.65,185.76,218.43,186.28Z"/><path class="cls-1" d="M220.09,190.14a12.21,12.21,0,0,1,1.26,6.31c-.12,1.28-.54,2.64-1,2.63-.78,0-1.32-3.67-1.64-5.85-.25-1.7-.51-3.43-.25-4.17S219.61,189.22,220.09,190.14Z"/><path class="cls-1" d="M209,120.75c.81,1.36,4.22,7.1,1.93,12.66-.54,1.3-1.41,3.42-2.95,3.63-4.21.56-8.87-13.74-9.49-15.64-1.57-4.8-2.7-8.27-1.39-9.25C199,110.72,205.62,115,209,120.75Z"/><path class="cls-1" d="M178,97.64a5.34,5.34,0,0,1,3.49-3.16c2-.49,4.12.49,9.78,5.78,7.46,7,11.19,10.44,10.19,13.5-.82,2.52-4.27,3.36-4.44,3.4C188.31,119.18,175.39,104.41,178,97.64Z"/><path class="cls-1" d="M211.68,135c1,.38,2.83,1.47,2.72,3.09a2.14,2.14,0,0,1-1.32,1.92c-1.25.31-2.52-1.56-3.28-2.67-.59-.86-1.19-1.75-.87-2.27S210.81,134.63,211.68,135Z"/><path class="cls-1" d="M214.49,137.27c1,.47,2.67,1.74,2.4,3.34a2.14,2.14,0,0,1-1.51,1.78c-1.27.19-2.35-1.8-3-3-.5-.91-1-1.86-.64-2.35S213.65,136.86,214.49,137.27Z"/><path class="cls-1" d="M217.06,140c1,.47,2.67,1.74,2.4,3.34A2.14,2.14,0,0,1,218,145.1c-1.27.19-2.35-1.8-3-3-.5-.92-1-1.86-.64-2.35S216.22,139.57,217.06,140Z"/><path class="cls-1" d="M219.28,142.24c1,.3,2.93,1.26,2.93,2.88a2.13,2.13,0,0,1-1.18,2c-1.22.41-2.63-1.37-3.46-2.42-.65-.82-1.32-1.66-1-2.21S218.38,142,219.28,142.24Z"/><path class="cls-1" d="M222,145.41a12.36,12.36,0,0,1,3.11,5.64c.28,1.26.29,2.68-.16,2.82-.75.22-2.37-3.11-3.34-5.09a12.7,12.7,0,0,1-1.5-3.89C220.16,144,221.29,144.69,222,145.41Z"/><path class="cls-2" d="M137.69,45.06c-1.94,2.61-4.71,6.35-4.84,11.93,0,1-.07,7.48,4.53,12.35,6.55,6.94,19,7,26.13.82.63-.54,6.05-5.42,5.86-12.65-.16-6-4.05-9.9-7.87-13.74s-7.45-7.49-12.29-7.25C143.82,36.79,140.22,41.64,137.69,45.06Z"/><path class="cls-1" d="M101.84,140c-3.8,1.69-3.59,5.9-6.61,13.09-3.75,8.93-7.46,10.49-8.74,18.68-.34,2.18-.84,5.61.75,6.63,2.39,1.52,8-3.37,8.9-4.21,11.65-10.85,15.84-31.11,10.66-34.36C104.91,138.66,102.18,139.85,101.84,140Z"/><path class="cls-1" d="M123.18,117.82c-3-1.37-6.13.21-10.27,2.31s-9.11,4.64-10.59,10.08a13.9,13.9,0,0,0,1,9.25c.62,1.4,2.31,5.24,4.45,5.18s2-4.06,6.21-7.86c1.79-1.61,3.86-2.65,8-4.73,3.91-2,4.68-1.94,5.37-3.08C129.2,125.9,127.27,119.66,123.18,117.82Z"/><path class="cls-1" d="M86.35,177c-.84.66-2.25,2.26-1.66,3.77a2.15,2.15,0,0,0,1.85,1.42c1.28-.07,1.93-2.24,2.32-3.53.3-1,.6-2,.14-2.43S87.09,176.46,86.35,177Z"/><path class="cls-1" d="M84.38,180.09c-.77.74-2,2.47-1.28,3.91a2.16,2.16,0,0,0,2,1.24c1.27-.2,1.7-2.43,2-3.75.2-1,.4-2.08-.1-2.43S85.06,179.45,84.38,180.09Z"/><path class="cls-1" d="M82.75,183.45c-.77.74-2,2.47-1.28,3.91a2.16,2.16,0,0,0,2,1.24c1.27-.2,1.7-2.42,2-3.75.2-1,.4-2.07-.1-2.43S83.43,182.81,82.75,183.45Z"/><path class="cls-1" d="M81.32,186.28c-.89.6-2.41,2.09-1.92,3.63a2.13,2.13,0,0,0,1.74,1.56c1.28,0,2.08-2.1,2.56-3.36.37-1,.75-2,.31-2.41S82.1,185.76,81.32,186.28Z"/><path class="cls-1" d="M79.66,190.14a12.21,12.21,0,0,0-1.26,6.31c.12,1.28.54,2.64,1,2.63.78,0,1.32-3.67,1.64-5.85.25-1.7.51-3.43.25-4.17S80.14,189.22,79.66,190.14Z"/><path class="cls-1" d="M90.73,120.75c-.81,1.36-4.22,7.1-1.93,12.66.54,1.3,1.41,3.42,3,3.63,4.21.56,8.87-13.74,9.49-15.64,1.57-4.8,2.7-8.27,1.39-9.25C100.71,110.72,94.13,115,90.73,120.75Z"/><path class="cls-1" d="M121.74,97.64a5.34,5.34,0,0,0-3.49-3.16c-2-.49-4.12.49-9.78,5.78-7.46,7-11.19,10.44-10.19,13.5.82,2.52,4.27,3.36,4.44,3.4C111.44,119.18,124.36,104.41,121.74,97.64Z"/><path class="cls-1" d="M88.07,135c-1,.38-2.83,1.47-2.72,3.09A2.14,2.14,0,0,0,86.67,140c1.25.31,2.52-1.56,3.28-2.67.59-.86,1.19-1.75.87-2.27S88.94,134.63,88.07,135Z"/><path class="cls-1" d="M85.26,137.27c-1,.47-2.67,1.74-2.4,3.34a2.14,2.14,0,0,0,1.51,1.78c1.27.19,2.35-1.8,3-3,.5-.91,1-1.86.64-2.35S86.1,136.86,85.26,137.27Z"/><path class="cls-1" d="M82.69,140c-1,.47-2.67,1.74-2.4,3.34a2.14,2.14,0,0,0,1.51,1.78c1.27.19,2.35-1.8,3-3,.5-.92,1-1.86.64-2.35S83.53,139.57,82.69,140Z"/><path class="cls-1" d="M80.47,142.24c-1,.3-2.93,1.26-2.93,2.88a2.13,2.13,0,0,0,1.18,2c1.22.41,2.63-1.37,3.46-2.42.65-.82,1.32-1.66,1-2.21S81.37,142,80.47,142.24Z"/><path class="cls-1" d="M77.72,145.41a12.36,12.36,0,0,0-3.11,5.64c-.28,1.26-.29,2.68.16,2.82.75.22,2.37-3.11,3.34-5.09a12.7,12.7,0,0,0,1.5-3.89C79.59,144,78.46,144.69,77.72,145.41Z"/><path class="cls-1" d="M106.11,55c-1.19-.47-6.19-2.44-10.31.08-1,.6-2.54,1.56-2.5,2.82.09,3.41,12,5.28,13.64,5.53,4,.63,6.91,1.08,7.52-.09C115.35,61.66,111.07,57,106.11,55Z"/><path class="cls-1" d="M129.16,84.84c3-1.34-.15-10.75-3.46-16.46-1.19-2-6.09-10.48-10.88-10.27-3,.13-5.09,3.62-5.42,6.57C108.29,74.38,125.06,86.65,129.16,84.84Z"/><path class="cls-1" d="M95,53.85c-.75-.76-2.48-2-3.92-1.23a2.15,2.15,0,0,0-1.22,2c.22,1.27,2.45,1.67,3.77,1.91,1,.19,2.08.38,2.43-.12S95.66,54.52,95,53.85Z"/><path class="cls-1" d="M91.76,52.23c-.82-.69-2.68-1.74-4-.84a2.13,2.13,0,0,0-1,2.1c.34,1.24,2.59,1.42,3.93,1.53,1,.09,2.11.17,2.41-.36S92.47,52.83,91.76,52.23Z"/><path class="cls-1" d="M88.24,51c-.82-.69-2.68-1.74-4-.84a2.13,2.13,0,0,0-1,2.1c.34,1.24,2.59,1.42,3.94,1.53,1,.09,2.1.17,2.4-.36S89,51.58,88.24,51Z"/><path class="cls-1" d="M85.27,49.87c-.69-.82-2.34-2.17-3.82-1.52a2.15,2.15,0,0,0-1.36,1.9c.13,1.28,2.32,1.85,3.62,2.18,1,.26,2.05.53,2.43,0S85.87,50.58,85.27,49.87Z"/><path class="cls-1" d="M80.93,48.62a12.31,12.31,0,0,0-3.86-5.15c-1-.77-2.33-1.36-2.64-1-.51.58,1.86,3.43,3.27,5.13a12.61,12.61,0,0,0,2.93,3C81.49,50.93,81.29,49.59,80.93,48.62Z"/><path class="cls-3" d="M131.92,208.47a13.53,13.53,0,0,0,6.39,6c1.55.67,3.6.79,7.63,1,5,.26,7.48.39,8.79-.13,3.76-1.5,5.24-5.49,7-10,1.46-3.74,1.1-5.11.89-5.68-.39-1.09-1.35-2.48-5.36-4.16a28,28,0,0,0-17.6-2c-3.69.82-6.33,1.41-8,3.83C128.61,201.77,131.55,207.75,131.92,208.47Z"/><path class="cls-3" d="M122.32,184.54c-1.38,2.73-.32,7,.52,10.3a28.54,28.54,0,0,0,2.69,6.8,7.43,7.43,0,0,0,1.36,1.51,9.14,9.14,0,0,0,2.51,1.41c3.16,1.11,31.66,7.38,37.07.24a34.18,34.18,0,0,0,2.42-3.8,31,31,0,0,0,2-4.51c.35-1,2.6-7.62.81-11.18-1.59-3.17-6.15-3.51-21.05-3.86C128.5,180.94,123.94,181.36,122.32,184.54Z"/><path class="cls-3" d="M122.48,170.75c-1.17,2.38-1.06,5.48-.93,8.82.13,3.56.21,5.66,1.51,7.55s3.55,2.9,10.16,4.29c7.33,1.55,11,2.33,15.17,2.49,7.71.31,12.67-.88,18.38-2.24,2.87-.68,5.9-1.58,7.65-4.23.32-.49.89-1.47,1.38-4.51.72-4.4,1.32-8.1-.05-11.1-1.71-3.76-5.94-5.11-10.86-6.6-2-.61-10.54-3-25.16-1C130.45,165.53,124.61,166.43,122.48,170.75Z"/><path class="cls-3" d="M119,152a25,25,0,0,0-.88,11.16c.4,3,.86,6.4,3.33,9.19s5.88,3.51,12.33,4.63c2.1.36,3.85.57,15.66,1.16,3,.15,7.89.39,14.34.41,7.7,0,8.78-.32,9.79-.81,6-2.91,7.89-10.1,8.29-12a20.1,20.1,0,0,0-1.19-12.27C172.6,136.68,124.49,138.37,119,152Z"/><path class="cls-3" d="M119.13,136.6c-5.2,5.8-6.1,16.38-1.57,21.35,2,2.21,6,2.78,14,3.84a161,161,0,0,0,19.14,1.32c13.71.25,18.57-.67,21.45-1.34,5.67-1.33,8.55-2.05,10.53-4.55,4.28-5.41,2.35-16-3.29-21.59-2.78-2.74-6.34-4.16-30-3.81C125.16,132.18,121.68,133.76,119.13,136.6Z"/><path class="cls-4" d="M114.34,129.34a10.13,10.13,0,0,0,1.62,5c1.68,2.4,4.31,3.42,22.71,5.21,5.32.51,7.94.71,11.21.77,1.55,0,3.67,0,10.19-.26,15.68-.71,18.07-1.43,20-3.39a11.46,11.46,0,0,0,2.81-5.8c1.82-8.05-3.53-16.4-8.71-20.85-8-6.87-18-6.46-25.07-6.17a54.6,54.6,0,0,0-25.74,7.91C122.14,112.69,113.25,119.79,114.34,129.34Z"/><path class="cls-4" d="M125.56,68.36c6.88-6.74,16.39-6.81,24.45-6.87,8.58-.06,21.13-.15,28.42,8.75,8.5,10.38,6,28.2-3.52,38.57-9.28,10.14-22.47,10.19-26,10.06-2.76-.1-15.53-.57-23.88-10.63C115.6,96.85,115.78,78,125.56,68.36Z"/><path class="cls-2" d="M145.2,81.56c-.74.39-4.6,2.45-5.09,5.9-.59,4.16,4.07,8.06,7.9,9.42,5.15,1.84,9.78-.54,11.4-1.38,2-1,4.59-2.36,5.63-5.36a7.93,7.93,0,0,0-.8-7c-2.63-3.75-8.46-3.32-13.41-3A13.41,13.41,0,0,0,145.2,81.56Z"/><line class="cls-5" x1="145.46" y1="46.09" x2="139.24" y2="38.36"/><line class="cls-5" x1="132.7" y1="17.27" x2="139.24" y2="38.36"/><line class="cls-5" x1="152.39" y1="46.09" x2="158.61" y2="38.36"/><line class="cls-5" x1="165.15" y1="17.27" x2="158.61" y2="38.36"/><g class="cls-6"><path class="cls-7" d="M174.11,78.38c10.17-7,23.67-4.57,32.41-3.4,27.74,3.71,24.47-2.78,51.86,1.24,19.54,2.87,39.33,5.77,41.95,16.13,2.38,9.44-10.86,19.72-12,20.6-8.69,6.59-21.12,9-31.15,5.28-8.66-3.23-8.52-8.43-21.64-14.85-4.05-2-2.34-.65-15.12-5.56-14.95-5.75-17.08-7.5-24.08-8.45-4-.55-4.94-.18-12.65-1.12-12.49-1.51-13.93-2.93-14.2-4C168.91,81.94,173.11,79.06,174.11,78.38Z"/><path class="cls-7" d="M176.28,89.13c24.59,4.88,19.46,3.23,23.83,4.55,18.85,5.71,29.83,10.89,34.94,13.43,12.61,6.26,15.63,9.41,15.66,12.7,0,4.28-5,7.39-5.63,7.77-7.46,4.48-17.17.23-20.44-1.2-15.23-6.66-23.49-21.43-25.26-20.18-.53.37.39,1.57-.26,2.57-2.2,3.42-19.08-.83-28.16-11.86-1.05-1.28-4.6-5.58-3.35-7.58C168.69,87.61,172.81,88.44,176.28,89.13Z"/></g><g class="cls-6"><path class="cls-7" d="M130.89,78.38c-10.17-7-23.67-4.57-32.41-3.4C70.74,78.69,74,72.2,46.62,76.22,27.08,79.09,7.29,82,4.67,92.35c-2.38,9.44,10.86,19.72,12,20.6,8.69,6.59,21.12,9,31.15,5.28,8.66-3.23,8.52-8.43,21.64-14.85,4-2,2.34-.65,15.12-5.56,15-5.75,17.08-7.5,24.08-8.45,4-.55,4.94-.18,12.65-1.12,12.49-1.51,13.93-2.93,14.2-4C136.09,81.94,131.89,79.06,130.89,78.38Z"/><path class="cls-7" d="M128.72,89.13c-24.59,4.88-19.46,3.23-23.83,4.55C86,99.39,75.06,104.57,70,107.11c-12.61,6.26-15.63,9.41-15.66,12.7,0,4.28,5,7.39,5.63,7.77,7.46,4.48,17.17.23,20.44-1.2,15.23-6.66,23.49-21.43,25.26-20.18.53.37-.39,1.57.26,2.57,2.2,3.42,19.08-.83,28.16-11.86,1.05-1.28,4.6-5.58,3.35-7.58C136.31,87.61,132.19,88.44,128.72,89.13Z"/></g></svg>