<svg id="Layer_1" data-name="Layer 1" xmlns="http://www.w3.org/2000/svg" xmlns:xlink="http://www.w3.org/1999/xlink" viewBox="0 0 305 232"><defs><style>.cls-1,.cls-9{fill:#aa2d07;}.cls-1,.cls-11,.cls-12,.cls-13,.cls-8{stroke:#5b1d1d;}.cls-1,.cls-11,.cls-12,.cls-13,.cls-15,.cls-16,.cls-17,.cls-18,.cls-2,.cls-3,.cls-4,.cls-5,.cls-8{stroke-miterlimit:10;}.cls-1,.cls-13{stroke-width:2.99px;}.cls-2{fill:#030303;stroke-width:2.24px;}.cls-2,.cls-3,.cls-4{stroke:#252525;}.cls-3{stroke-width:4.48px;}.cls-4{fill:#070b0a;stroke-width:1.15px;}.cls-11,.cls-12,.cls-13,.cls-16,.cls-17,.cls-5,.cls-8{fill:none;}.cls-5{stroke:#000;stroke-width:4.82px;}.cls-17,.cls-5{stroke-linecap:round;}.cls-6{opacity:0.86;}.cls-7{fill:#231b14;}.cls-8{stroke-width:0.75px;}.cls-10{clip-path:url(#clip-path);}.cls-11{stroke-width:0.67px;}.cls-12{stroke-width:0.6px;}.cls-14{clip-path:url(#clip-path-2);}.cls-15{fill:#a8dddb;stroke:#798c8a;stroke-width:1.12px;}.cls-16,.cls-17,.cls-18{stroke:#755516;}.cls-16{stroke-width:2.61px;}.cls-17{stroke-width:4.85px;}.cls-18{fill:#a07e2a;stroke-width:1.49px;}</style><clipPath id="clip-path"><path class="cls-1" d="M127.3,85c-.42.12-2.24.75-3.73,4.1-1.33,3-1.38,5.81-1.12,10.08.81,13.59,3.09,15.67,4.11,16.43a4,4,0,0,0,3,1.12c4.31-.87,4.46-14.48,4.48-16.43,0-2.66.15-13.86-4.1-15.3A4.48,4.48,0,0,0,127.3,85Z"/></clipPath><clipPath id="clip-path-2"><path class="cls-1" d="M174,84.63c.43.13,2.24.76,3.74,4.11,1.33,3,1.37,5.81,1.12,10.08-.81,13.59-3.09,15.67-4.11,16.42a3.9,3.9,0,0,1-3,1.12c-4.3-.87-4.45-14.47-4.47-16.42,0-2.66-.16-13.86,4.1-15.31A4.53,4.53,0,0,1,174,84.63Z"/></clipPath></defs><title>bumble_anatomy_internal</title><path class="cls-2" d="M197.91,150.7c3.8,1.69,3.59,5.9,6.61,13.09,3.75,8.93,7.46,10.49,8.74,18.68.34,2.18.84,5.61-.75,6.62-2.39,1.53-8-3.36-8.9-4.2C192,174,187.77,153.78,193,150.53,194.84,149.34,197.57,150.54,197.91,150.7Z"/><path class="cls-2" d="M176.57,128.51c3-1.37,6.13.21,10.27,2.31s9.11,4.64,10.59,10.08a13.9,13.9,0,0,1-1,9.25c-.62,1.4-2.31,5.24-4.45,5.18s-2-4.07-6.21-7.86c-1.79-1.61-3.86-2.65-8-4.73-3.91-2-4.68-1.94-5.37-3.08C170.55,136.59,172.48,130.35,176.57,128.51Z"/><path class="cls-2" d="M213.4,187.72c.84.66,2.25,2.25,1.66,3.76a2.14,2.14,0,0,1-1.85,1.43c-1.28-.08-1.93-2.24-2.32-3.53-.3-1-.6-2-.14-2.43S212.66,187.15,213.4,187.72Z"/><path class="cls-2" d="M215.37,190.78c.77.74,2,2.47,1.28,3.91a2.16,2.16,0,0,1-2,1.24c-1.27-.21-1.7-2.43-2-3.75-.2-1-.4-2.08.1-2.43S214.69,190.14,215.37,190.78Z"/><path class="cls-2" d="M217,194.14c.77.74,2,2.47,1.28,3.91a2.16,2.16,0,0,1-2,1.24c-1.27-.21-1.7-2.43-2-3.75-.2-1-.4-2.08.1-2.43S216.32,193.5,217,194.14Z"/><path class="cls-2" d="M218.43,197c.89.59,2.41,2.08,1.92,3.63a2.14,2.14,0,0,1-1.74,1.56c-1.28,0-2.08-2.1-2.56-3.36-.37-1-.75-2-.31-2.42S217.65,196.45,218.43,197Z"/><path class="cls-2" d="M220.09,200.82a12.26,12.26,0,0,1,1.26,6.31c-.12,1.29-.54,2.65-1,2.64-.78,0-1.32-3.67-1.64-5.86-.25-1.69-.51-3.42-.25-4.16S219.61,199.91,220.09,200.82Z"/><path class="cls-2" d="M101.84,150.7c-3.8,1.69-3.59,5.9-6.61,13.09-3.75,8.93-7.46,10.49-8.74,18.68-.34,2.18-.84,5.61.75,6.62,2.39,1.53,8-3.36,8.9-4.2C107.79,174,112,153.78,106.8,150.53,104.91,149.34,102.18,150.54,101.84,150.7Z"/><path class="cls-2" d="M123.18,128.51c-3-1.37-6.13.21-10.27,2.31s-9.11,4.64-10.59,10.08a13.9,13.9,0,0,0,1,9.25c.62,1.4,2.31,5.24,4.45,5.18s2-4.07,6.21-7.86c1.79-1.61,3.86-2.65,8-4.73,3.91-2,4.68-1.94,5.37-3.08C129.2,136.59,127.27,130.35,123.18,128.51Z"/><path class="cls-2" d="M86.35,187.72c-.84.66-2.25,2.25-1.66,3.76a2.14,2.14,0,0,0,1.85,1.43c1.28-.08,1.93-2.24,2.32-3.53.3-1,.6-2,.14-2.43S87.09,187.15,86.35,187.72Z"/><path class="cls-2" d="M84.38,190.78c-.77.74-2,2.47-1.28,3.91a2.16,2.16,0,0,0,2,1.24c1.27-.21,1.7-2.43,2-3.75.2-1,.4-2.08-.1-2.43S85.06,190.14,84.38,190.78Z"/><path class="cls-2" d="M82.75,194.14c-.77.74-2,2.47-1.28,3.91a2.16,2.16,0,0,0,2,1.24c1.27-.21,1.7-2.43,2-3.75.2-1,.4-2.08-.1-2.43S83.43,193.5,82.75,194.14Z"/><path class="cls-2" d="M81.32,197c-.89.59-2.41,2.08-1.92,3.63a2.14,2.14,0,0,0,1.74,1.56c1.28,0,2.08-2.1,2.56-3.36.37-1,.75-2,.31-2.42S82.1,196.45,81.32,197Z"/><path class="cls-2" d="M79.66,200.82a12.26,12.26,0,0,0-1.26,6.31c.12,1.29.54,2.65,1,2.64.78,0,1.32-3.67,1.64-5.86.25-1.69.51-3.42.25-4.16S80.14,199.91,79.66,200.82Z"/><path class="cls-3" d="M180.56,147.57a11.55,11.55,0,0,0,2.66-5.64c1.83-8.05-3.52-16.4-8.7-20.85-8-6.87-18-6.46-25.07-6.16a54.3,54.3,0,0,0-25.74,7.91c-1.19.92-10.09,8-9,17.57a10.1,10.1,0,0,0,1.61,5,5.87,5.87,0,0,0,3.17,2.26h0c-5.2,5.81-6.09,16.39-1.56,21.35a4.31,4.31,0,0,0,.37.37,27.51,27.51,0,0,0,.22,4.82c.4,3,.86,6.4,3.34,9.19.1.12.21.24.32.35a28.44,28.44,0,0,0-.27,6.89,24.85,24.85,0,0,0,.56,5.47c-1,2.73-.06,6.65.74,9.8a28,28,0,0,0,2.68,6.8,7.23,7.23,0,0,0,1.37,1.51,8.68,8.68,0,0,0,2.51,1.41c.25.09.67.21,1.23.36a16.41,16.41,0,0,0,1.29,3.56,13.48,13.48,0,0,0,6.38,6c1.56.67,3.6.79,7.63,1,5,.26,7.48.4,8.79-.13,3.12-1.25,4.67-4.21,6.11-7.74,2.55-.51,4.55-1.4,5.64-2.83a34.86,34.86,0,0,0,2.42-3.8,31.22,31.22,0,0,0,2-4.51,27.46,27.46,0,0,0,1.48-7,7.45,7.45,0,0,0,2-2.07c.33-.49.89-1.47,1.38-4.51a38.75,38.75,0,0,0,.76-7.22c3.7-3.4,5-8.43,5.35-10a21.41,21.41,0,0,0,.15-7.84,7.73,7.73,0,0,0,.6-.67C187.09,163.14,185.56,153.31,180.56,147.57Z"/><path class="cls-2" d="M196.48,65.72c1.19-.47,6.19-2.45,10.31.08,1,.6,2.54,1.56,2.5,2.81-.09,3.41-12,5.29-13.64,5.54-4,.62-6.91,1.08-7.52-.09C187.24,72.35,191.52,67.68,196.48,65.72Z"/><path class="cls-2" d="M173.43,95.53c-3-1.35.15-10.75,3.46-16.46,1.19-2,6.08-10.48,10.88-10.27,3,.13,5.09,3.62,5.42,6.57C194.3,85.07,177.53,97.34,173.43,95.53Z"/><path class="cls-2" d="M207.58,64.54c.74-.77,2.48-2,3.92-1.23a2.14,2.14,0,0,1,1.22,2c-.22,1.26-2.45,1.67-3.77,1.91-1,.19-2.08.38-2.43-.12S206.92,65.21,207.58,64.54Z"/><path class="cls-2" d="M210.83,62.92c.82-.69,2.67-1.74,4-.84a2.13,2.13,0,0,1,1,2.1c-.34,1.24-2.59,1.42-3.94,1.53-1,.09-2.11.17-2.4-.36S210.12,63.52,210.83,62.92Z"/><path class="cls-2" d="M214.35,61.67c.82-.69,2.67-1.74,4-.85a2.17,2.17,0,0,1,1,2.11c-.34,1.24-2.59,1.42-3.94,1.53-1,.08-2.11.17-2.4-.37S213.64,62.27,214.35,61.67Z"/><path class="cls-2" d="M217.32,60.56c.69-.82,2.34-2.17,3.82-1.52a2.15,2.15,0,0,1,1.36,1.9c-.13,1.28-2.32,1.84-3.62,2.18-1,.26-2,.53-2.44.05S216.72,61.27,217.32,60.56Z"/><path class="cls-2" d="M221.66,59.31a12.31,12.31,0,0,1,3.86-5.15c1-.77,2.33-1.36,2.64-1,.51.58-1.86,3.43-3.27,5.13a12.8,12.8,0,0,1-2.93,3C221.1,61.61,221.3,60.28,221.66,59.31Z"/><path class="cls-2" d="M209,131.44c.81,1.36,4.22,7.1,1.93,12.66-.54,1.3-1.41,3.42-2.95,3.63-4.21.56-8.87-13.74-9.49-15.64-1.57-4.8-2.7-8.27-1.39-9.25C199,121.41,205.62,125.73,209,131.44Z"/><path class="cls-2" d="M178,108.32a5.35,5.35,0,0,1,3.49-3.15c2-.49,4.12.49,9.78,5.78,7.46,7,11.19,10.44,10.19,13.5-.82,2.52-4.27,3.36-4.44,3.4C188.31,129.87,175.39,115.09,178,108.32Z"/><path class="cls-2" d="M211.68,145.64c1,.38,2.83,1.47,2.72,3.09a2.14,2.14,0,0,1-1.32,1.92c-1.25.31-2.52-1.56-3.28-2.67-.59-.86-1.19-1.75-.87-2.27S210.81,145.32,211.68,145.64Z"/><path class="cls-2" d="M214.49,148c1,.47,2.67,1.74,2.4,3.34a2.14,2.14,0,0,1-1.51,1.78c-1.27.19-2.35-1.8-3-3-.5-.92-1-1.86-.64-2.35S213.65,147.55,214.49,148Z"/><path class="cls-2" d="M217.06,150.67c1,.47,2.67,1.74,2.4,3.34a2.14,2.14,0,0,1-1.51,1.78c-1.27.19-2.35-1.8-3-3-.5-.92-1-1.86-.64-2.35S216.22,150.26,217.06,150.67Z"/><path class="cls-2" d="M219.28,152.93c1,.3,2.93,1.26,2.93,2.88a2.13,2.13,0,0,1-1.18,2c-1.22.41-2.63-1.37-3.46-2.42-.65-.82-1.32-1.66-1-2.21S218.38,152.67,219.28,152.93Z"/><path class="cls-2" d="M222,156.1a12.37,12.37,0,0,1,3.11,5.63c.28,1.27.29,2.69-.16,2.82-.75.23-2.37-3.1-3.34-5.08a12.79,12.79,0,0,1-1.5-3.89C220.16,154.65,221.29,155.38,222,156.1Z"/><path class="cls-4" d="M137.69,55.75c-1.94,2.61-4.71,6.35-4.84,11.93,0,1-.07,7.48,4.53,12.35,6.55,6.94,19,7,26.13.82.63-.55,6.05-5.42,5.86-12.65-.16-6-4.05-9.9-7.87-13.74s-7.45-7.49-12.29-7.25C143.82,47.48,140.22,52.33,137.69,55.75Z"/><path class="cls-2" d="M90.73,131.44c-.81,1.36-4.22,7.1-1.93,12.66.54,1.3,1.41,3.42,3,3.63,4.21.56,8.87-13.74,9.49-15.64,1.57-4.8,2.7-8.27,1.39-9.25C100.71,121.41,94.13,125.73,90.73,131.44Z"/><path class="cls-2" d="M121.74,108.32a5.35,5.35,0,0,0-3.49-3.15c-2-.49-4.12.49-9.78,5.78-7.46,7-11.19,10.44-10.19,13.5.82,2.52,4.27,3.36,4.44,3.4C111.44,129.87,124.36,115.09,121.74,108.32Z"/><path class="cls-2" d="M88.07,145.64c-1,.38-2.83,1.47-2.72,3.09a2.14,2.14,0,0,0,1.32,1.92c1.25.31,2.52-1.56,3.28-2.67.59-.86,1.19-1.75.87-2.27S88.94,145.32,88.07,145.64Z"/><path class="cls-2" d="M85.26,148c-1,.47-2.67,1.74-2.4,3.34a2.14,2.14,0,0,0,1.51,1.78c1.27.19,2.35-1.8,3-3,.5-.92,1-1.86.64-2.35S86.1,147.55,85.26,148Z"/><path class="cls-2" d="M82.69,150.67c-1,.47-2.67,1.74-2.4,3.34a2.14,2.14,0,0,0,1.51,1.78c1.27.19,2.35-1.8,3-3,.5-.92,1-1.86.64-2.35S83.53,150.26,82.69,150.67Z"/><path class="cls-2" d="M80.47,152.93c-1,.3-2.93,1.26-2.93,2.88a2.13,2.13,0,0,0,1.18,2c1.22.41,2.63-1.37,3.46-2.42.65-.82,1.32-1.66,1-2.21S81.37,152.67,80.47,152.93Z"/><path class="cls-2" d="M77.72,156.1a12.37,12.37,0,0,0-3.11,5.63c-.28,1.27-.29,2.69.16,2.82.75.23,2.37-3.1,3.34-5.08a12.79,12.79,0,0,0,1.5-3.89C79.59,154.65,78.46,155.38,77.72,156.1Z"/><path class="cls-2" d="M106.11,65.72c-1.19-.47-6.19-2.45-10.31.08-1,.6-2.54,1.56-2.5,2.81.09,3.41,12,5.29,13.64,5.54,4,.62,6.91,1.08,7.52-.09C115.35,72.35,111.07,67.68,106.11,65.72Z"/><path class="cls-2" d="M129.16,95.53c3-1.35-.15-10.75-3.46-16.46-1.19-2-6.09-10.48-10.88-10.27-3,.13-5.09,3.62-5.42,6.57C108.29,85.07,125.06,97.34,129.16,95.53Z"/><path class="cls-2" d="M95,64.54c-.75-.77-2.48-2-3.92-1.23a2.14,2.14,0,0,0-1.22,2c.22,1.26,2.45,1.67,3.77,1.91,1,.19,2.08.38,2.43-.12S95.66,65.21,95,64.54Z"/><path class="cls-2" d="M91.76,62.92c-.82-.69-2.68-1.74-4-.84a2.13,2.13,0,0,0-1,2.1c.34,1.24,2.59,1.42,3.93,1.53,1,.09,2.11.17,2.41-.36S92.47,63.52,91.76,62.92Z"/><path class="cls-2" d="M88.24,61.67c-.82-.69-2.68-1.74-4-.85a2.15,2.15,0,0,0-1,2.11c.34,1.24,2.59,1.42,3.94,1.53,1,.08,2.1.17,2.4-.37S89,62.27,88.24,61.67Z"/><path class="cls-2" d="M85.27,60.56c-.69-.82-2.34-2.17-3.82-1.52a2.15,2.15,0,0,0-1.36,1.9c.13,1.28,2.32,1.84,3.62,2.18,1,.26,2.05.53,2.43.05S85.87,61.27,85.27,60.56Z"/><path class="cls-2" d="M80.93,59.31a12.31,12.31,0,0,0-3.86-5.15c-1-.77-2.33-1.36-2.64-1-.51.58,1.86,3.43,3.27,5.13a12.61,12.61,0,0,0,2.93,3C81.49,61.61,81.29,60.28,80.93,59.31Z"/><path class="cls-3" d="M125.56,79.05c6.88-6.74,16.39-6.81,24.45-6.87,8.58-.06,21.13-.15,28.42,8.75,8.5,10.37,6,28.2-3.52,38.57-9.28,10.14-22.47,10.19-26,10.06-2.76-.1-15.53-.57-23.88-10.63C115.6,107.53,115.78,88.64,125.56,79.05Z"/><line class="cls-5" x1="145.46" y1="56.78" x2="139.24" y2="49.05"/><line class="cls-5" x1="132.7" y1="27.96" x2="139.24" y2="49.05"/><line class="cls-5" x1="152.39" y1="56.78" x2="158.61" y2="49.05"/><line class="cls-5" x1="165.15" y1="27.96" x2="158.61" y2="49.05"/><g class="cls-6"><path class="cls-7" d="M174.11,89.07c10.17-7,23.67-4.57,32.41-3.4,27.74,3.71,24.47-2.78,51.86,1.23,19.54,2.87,39.33,5.78,41.95,16.14,2.38,9.44-10.86,19.72-12,20.6-8.69,6.59-21.12,9-31.15,5.27-8.66-3.22-8.52-8.43-21.64-14.84-4.05-2-2.34-.65-15.12-5.56-14.95-5.75-17.08-7.5-24.08-8.45-4-.55-4.94-.18-12.65-1.12-12.49-1.51-13.93-2.93-14.2-4C168.91,92.63,173.11,89.75,174.11,89.07Z"/><path class="cls-7" d="M176.28,99.82c24.59,4.88,19.46,3.23,23.83,4.55,18.85,5.71,29.83,10.89,34.94,13.43,12.61,6.26,15.63,9.41,15.66,12.7,0,4.28-5,7.39-5.63,7.76-7.46,4.49-17.17.24-20.44-1.19-15.23-6.66-23.49-21.44-25.26-20.18-.53.37.39,1.57-.26,2.57-2.2,3.42-19.08-.83-28.16-11.86-1.05-1.28-4.6-5.58-3.35-7.58C168.69,98.3,172.81,99.13,176.28,99.82Z"/></g><g class="cls-6"><path class="cls-7" d="M130.89,89.07c-10.17-7-23.67-4.57-32.41-3.4C70.74,89.38,74,82.89,46.62,86.9,27.08,89.77,7.29,92.68,4.67,103c-2.38,9.44,10.86,19.72,12,20.6,8.69,6.59,21.12,9,31.15,5.27,8.66-3.22,8.52-8.43,21.64-14.84,4-2,2.34-.65,15.12-5.56,15-5.75,17.08-7.5,24.08-8.45,4-.55,4.94-.18,12.65-1.12,12.49-1.51,13.93-2.93,14.2-4C136.09,92.63,131.89,89.75,130.89,89.07Z"/><path class="cls-7" d="M128.72,99.82c-24.59,4.88-19.46,3.23-23.83,4.55C86,110.08,75.06,115.26,70,117.8c-12.61,6.26-15.63,9.41-15.66,12.7,0,4.28,5,7.39,5.63,7.76,7.46,4.49,17.17.24,20.44-1.19,15.23-6.66,23.49-21.44,25.26-20.18.53.37-.39,1.57.26,2.57,2.2,3.42,19.08-.83,28.16-11.86,1.05-1.28,4.6-5.58,3.35-7.58C136.31,98.3,132.19,99.13,128.72,99.82Z"/></g><path class="cls-1" d="M141,77.31c-2.45,1.3-3.91,4.69-3.52,20.52.36,14.69.73,25.72,5.26,26.91a3.65,3.65,0,0,0,2.23-.19c4-1.62,3-9.19,3.45-25.76.35-13.85,1.26-19.62-2.18-21.55A5.7,5.7,0,0,0,141,77.31Z"/><path class="cls-1" d="M160.35,77.29c2.46,1.29,4,4.66,3.68,20.5-.25,14.69-.53,25.72-5.05,26.94a3.59,3.59,0,0,1-2.24-.17c-4-1.59-3.11-9.17-3.65-25.74-.44-13.84-1.4-19.6,2-21.56A5.7,5.7,0,0,1,160.35,77.29Z"/><path class="cls-1" d="M174.22,85c.43.12,2.24.75,3.74,4.1,1.33,3,1.37,5.81,1.12,10.08-.82,13.59-3.09,15.67-4.11,16.43a4,4,0,0,1-3,1.12c-4.31-.87-4.46-14.48-4.48-16.43,0-2.66-.15-13.86,4.11-15.3A4.45,4.45,0,0,1,174.22,85Z"/><line class="cls-8" x1="139.99" y1="77.91" x2="140.74" y2="121.59"/><line class="cls-8" x1="141.86" y1="77.91" x2="142.23" y2="124.58"/><line class="cls-8" x1="143.73" y1="77.54" x2="144.1" y2="124.2"/><line class="cls-8" x1="145.59" y1="77.91" x2="145.97" y2="124.58"/><line class="cls-8" x1="155.3" y1="77.91" x2="156.05" y2="122.71"/><line class="cls-8" x1="157.17" y1="77.91" x2="157.54" y2="124.58"/><line class="cls-8" x1="159.03" y1="77.54" x2="159.41" y2="124.2"/><line class="cls-8" x1="160.9" y1="77.91" x2="161.27" y2="124.58"/><path class="cls-9" d="M127.3,85c-.42.12-2.24.75-3.73,4.1-1.33,3-1.38,5.81-1.12,10.08.81,13.59,3.09,15.67,4.11,16.43a4,4,0,0,0,3,1.12c4.31-.87,4.46-14.48,4.48-16.43,0-2.66.15-13.86-4.1-15.3A4.48,4.48,0,0,0,127.3,85Z"/><g class="cls-10"><circle class="cls-8" cx="124.5" cy="92.66" r="0.93"/><circle class="cls-8" cx="122.64" cy="97.51" r="0.93"/><circle class="cls-8" cx="124.13" cy="99" r="0.93"/><circle class="cls-8" cx="124.5" cy="96.76" r="0.93"/><circle class="cls-8" cx="123.01" cy="95.64" r="0.93"/><circle class="cls-8" cx="124.88" cy="94.52" r="0.93"/><circle class="cls-8" cx="126.74" cy="94.15" r="0.93"/><circle class="cls-8" cx="126.37" cy="96.39" r="0.93"/><circle class="cls-8" cx="126" cy="98.63" r="0.93"/><circle class="cls-8" cx="128.24" cy="95.27" r="0.93"/><circle class="cls-8" cx="127.86" cy="97.51" r="0.93"/><circle class="cls-8" cx="127.49" cy="101.24" r="0.93"/><circle class="cls-8" cx="128.98" cy="102.74" r="0.93"/><circle class="cls-8" cx="129.36" cy="100.5" r="0.93"/><circle class="cls-8" cx="127.86" cy="99.38" r="0.93"/><circle class="cls-8" cx="129.73" cy="98.26" r="0.93"/><circle class="cls-8" cx="131.6" cy="97.88" r="0.93"/><circle class="cls-8" cx="131.22" cy="100.12" r="0.93"/><circle class="cls-8" cx="130.85" cy="102.36" r="0.93"/><circle class="cls-8" cx="133.09" cy="99" r="0.93"/><circle class="cls-8" cx="132.72" cy="101.24" r="0.93"/><circle class="cls-8" cx="123.01" cy="106.84" r="0.93"/><circle class="cls-8" cx="124.5" cy="108.34" r="0.93"/><circle class="cls-8" cx="124.88" cy="106.1" r="0.93"/><circle class="cls-8" cx="123.38" cy="104.98" r="0.93"/><circle class="cls-8" cx="125.25" cy="103.86" r="0.93"/><circle class="cls-8" cx="127.12" cy="103.48" r="0.93"/><circle class="cls-8" cx="126.74" cy="105.72" r="0.93"/><circle class="cls-8" cx="126.37" cy="107.96" r="0.93"/><circle class="cls-8" cx="128.61" cy="104.6" r="0.93"/><circle class="cls-8" cx="128.24" cy="106.84" r="0.93"/><circle class="cls-8" cx="127.86" cy="110.95" r="0.93"/><circle class="cls-8" cx="129.36" cy="112.44" r="0.93"/><circle class="cls-8" cx="129.73" cy="110.2" r="0.93"/><circle class="cls-8" cx="128.24" cy="109.08" r="0.93"/><circle class="cls-8" cx="130.1" cy="107.96" r="0.93"/><circle class="cls-8" cx="131.97" cy="107.59" r="0.93"/><circle class="cls-8" cx="131.6" cy="109.83" r="0.93"/><circle class="cls-8" cx="131.22" cy="112.07" r="0.93"/><circle class="cls-8" cx="133.46" cy="108.71" r="0.93"/><circle class="cls-8" cx="133.09" cy="110.95" r="0.93"/><circle class="cls-8" cx="130.85" cy="104.23" r="0.93"/><circle class="cls-8" cx="130.1" cy="106.1" r="0.93"/><circle class="cls-8" cx="131.97" cy="105.72" r="0.93"/><ellipse class="cls-11" cx="132.53" cy="103.11" rx="0.75" ry="0.93"/><circle class="cls-8" cx="125.62" cy="100.5" r="0.93"/><circle class="cls-8" cx="123.76" cy="101.99" r="0.93"/><circle class="cls-12" cx="125.81" cy="102.18" r="0.75"/><circle class="cls-8" cx="126.37" cy="109.83" r="0.93"/><circle class="cls-8" cx="126" cy="111.7" r="0.93"/><circle class="cls-8" cx="127.49" cy="113.19" r="0.93"/><circle class="cls-8" cx="128.98" cy="114.31" r="0.93"/></g><path class="cls-13" d="M127.3,85c-.42.12-2.24.75-3.73,4.1-1.33,3-1.38,5.81-1.12,10.08.81,13.59,3.09,15.67,4.11,16.43a4,4,0,0,0,3,1.12c4.31-.87,4.46-14.48,4.48-16.43,0-2.66.15-13.86-4.1-15.3A4.48,4.48,0,0,0,127.3,85Z"/><circle class="cls-8" cx="125.25" cy="90.79" r="0.93"/><circle class="cls-8" cx="126.74" cy="92.29" r="0.93"/><circle class="cls-8" cx="127.12" cy="90.05" r="0.93"/><circle class="cls-8" cx="125.62" cy="88.93" r="0.93"/><circle class="cls-8" cx="127.49" cy="87.81" r="0.93"/><circle class="cls-8" cx="129.36" cy="87.43" r="0.93"/><circle class="cls-8" cx="128.98" cy="89.67" r="0.93"/><circle class="cls-8" cx="128.61" cy="91.91" r="0.93"/><circle class="cls-8" cx="130.85" cy="88.55" r="0.93"/><circle class="cls-8" cx="130.48" cy="90.79" r="0.93"/><circle class="cls-8" cx="129.36" cy="93.78" r="0.93"/><circle class="cls-8" cx="129.73" cy="96.02" r="0.93"/><circle class="cls-8" cx="131.6" cy="96.02" r="0.93"/><circle class="cls-8" cx="130.85" cy="92.66" r="0.93"/><ellipse class="cls-11" cx="131.22" cy="94.34" rx="0.93" ry="0.75"/><path class="cls-9" d="M174,84.63c.43.13,2.24.76,3.74,4.11,1.33,3,1.37,5.81,1.12,10.08-.81,13.59-3.09,15.67-4.11,16.42a3.9,3.9,0,0,1-3,1.12c-4.3-.87-4.45-14.47-4.47-16.42,0-2.66-.16-13.86,4.1-15.31A4.53,4.53,0,0,1,174,84.63Z"/><g class="cls-14"><circle class="cls-8" cx="176.76" cy="92.29" r="0.93"/><circle class="cls-8" cx="178.63" cy="97.14" r="0.93"/><circle class="cls-8" cx="177.14" cy="98.63" r="0.93"/><circle class="cls-8" cx="176.76" cy="96.39" r="0.93"/><circle class="cls-8" cx="178.26" cy="95.27" r="0.93"/><circle class="cls-8" cx="176.39" cy="94.15" r="0.93"/><circle class="cls-8" cx="174.52" cy="93.78" r="0.93"/><circle class="cls-8" cx="174.9" cy="96.02" r="0.93"/><circle class="cls-8" cx="175.27" cy="98.26" r="0.93"/><circle class="cls-8" cx="173.03" cy="94.9" r="0.93"/><circle class="cls-8" cx="173.4" cy="97.14" r="0.93"/><circle class="cls-8" cx="173.78" cy="100.87" r="0.93"/><circle class="cls-8" cx="172.28" cy="102.36" r="0.93"/><circle class="cls-8" cx="171.91" cy="100.12" r="0.93"/><circle class="cls-8" cx="173.4" cy="99" r="0.93"/><circle class="cls-8" cx="171.54" cy="97.88" r="0.93"/><circle class="cls-8" cx="169.67" cy="97.51" r="0.93"/><circle class="cls-8" cx="170.05" cy="99.75" r="0.93"/><circle class="cls-8" cx="170.42" cy="101.99" r="0.93"/><circle class="cls-8" cx="168.18" cy="98.63" r="0.93"/><circle class="cls-8" cx="168.55" cy="100.87" r="0.93"/><circle class="cls-8" cx="178.26" cy="106.47" r="0.93"/><circle class="cls-8" cx="176.76" cy="107.96" r="0.93"/><circle class="cls-8" cx="176.39" cy="105.72" r="0.93"/><circle class="cls-8" cx="177.88" cy="104.6" r="0.93"/><circle class="cls-8" cx="176.02" cy="103.48" r="0.93"/><circle class="cls-8" cx="174.15" cy="103.11" r="0.93"/><circle class="cls-8" cx="174.52" cy="105.35" r="0.93"/><circle class="cls-8" cx="174.9" cy="107.59" r="0.93"/><circle class="cls-8" cx="172.66" cy="104.23" r="0.93"/><circle class="cls-8" cx="173.03" cy="106.47" r="0.93"/><circle class="cls-8" cx="173.4" cy="110.58" r="0.93"/><circle class="cls-8" cx="171.91" cy="112.07" r="0.93"/><circle class="cls-8" cx="171.54" cy="109.83" r="0.93"/><circle class="cls-8" cx="173.03" cy="108.71" r="0.93"/><circle class="cls-8" cx="171.16" cy="107.59" r="0.93"/><circle class="cls-8" cx="169.3" cy="107.22" r="0.93"/><circle class="cls-8" cx="169.67" cy="109.46" r="0.93"/><circle class="cls-8" cx="170.05" cy="111.7" r="0.93"/><circle class="cls-8" cx="167.81" cy="108.34" r="0.93"/><circle class="cls-8" cx="168.18" cy="110.58" r="0.93"/><circle class="cls-8" cx="170.42" cy="103.86" r="0.93"/><circle class="cls-8" cx="171.16" cy="105.72" r="0.93"/><circle class="cls-8" cx="169.3" cy="105.35" r="0.93"/><ellipse class="cls-11" cx="168.74" cy="102.74" rx="0.75" ry="0.93"/><circle class="cls-8" cx="175.64" cy="100.12" r="0.93"/><circle class="cls-8" cx="177.51" cy="101.62" r="0.93"/><circle class="cls-12" cx="175.46" cy="101.8" r="0.75"/><circle class="cls-8" cx="174.9" cy="109.46" r="0.93"/><circle class="cls-8" cx="175.27" cy="111.32" r="0.93"/><circle class="cls-8" cx="173.78" cy="112.82" r="0.93"/><circle class="cls-8" cx="172.28" cy="113.94" r="0.93"/></g><path class="cls-13" d="M174,84.63c.43.13,2.24.76,3.74,4.11,1.33,3,1.37,5.81,1.12,10.08-.81,13.59-3.09,15.67-4.11,16.42a3.9,3.9,0,0,1-3,1.12c-4.3-.87-4.45-14.47-4.47-16.42,0-2.66-.16-13.86,4.1-15.31A4.53,4.53,0,0,1,174,84.63Z"/><circle class="cls-8" cx="176.02" cy="90.42" r="0.93"/><circle class="cls-8" cx="174.52" cy="91.91" r="0.93"/><circle class="cls-8" cx="174.15" cy="89.67" r="0.93"/><circle class="cls-8" cx="175.64" cy="88.55" r="0.93"/><circle class="cls-8" cx="173.78" cy="87.43" r="0.93"/><circle class="cls-8" cx="171.91" cy="87.06" r="0.93"/><circle class="cls-8" cx="172.28" cy="89.3" r="0.93"/><circle class="cls-8" cx="172.66" cy="91.54" r="0.93"/><circle class="cls-8" cx="170.42" cy="88.18" r="0.93"/><circle class="cls-8" cx="170.79" cy="90.42" r="0.93"/><circle class="cls-8" cx="171.91" cy="93.4" r="0.93"/><circle class="cls-8" cx="171.54" cy="95.64" r="0.93"/><circle class="cls-8" cx="169.67" cy="95.64" r="0.93"/><circle class="cls-8" cx="170.42" cy="92.29" r="0.93"/><ellipse class="cls-11" cx="170.05" cy="93.96" rx="0.93" ry="0.75"/><path class="cls-15" d="M136.82,131.48c-1.85-1.69-5.28-4.81-9.33-4.1-5.49,1-9,8.36-7.84,13.43.66,2.9,2.3,2.68,3,5.6,1.25,5.39-4,7.74-3.36,13.82.36,3.77,2.42,3.4,3,8.21.46,3.93-.79,5.32.38,8.58.94,2.63,2.08,2.66,3,5.23s.34,4.07,0,7.84a39.11,39.11,0,0,0,.75,13.81,15.68,15.68,0,0,0,3.73,7.47c.25.26,4.9,5,8.21,3.73,4-1.47,4.34-10.8,3.36-17.17-1.52-9.94-5.86-9.68-8.58-20.91-1.94-8-1.21-14.18-.37-21.27.53-4.57,1.24-6.69,2.61-8.59,2.64-3.67,5.6-3.53,6.34-6.35C142.72,136.86,138,132.52,136.82,131.48Z"/><path class="cls-15" d="M162.24,131.48c1.85-1.69,5.28-4.81,9.33-4.1,5.49,1,9,8.36,7.84,13.43-.66,2.9-2.3,2.68-3,5.6-1.26,5.39,3.94,7.74,3.36,13.82-.37,3.77-2.43,3.4-3,8.21-.46,3.93.79,5.32-.37,8.58-.94,2.63-2.09,2.66-3,5.23s-.34,4.07,0,7.84c.28,3.17.72,8.44-.75,13.81a15.68,15.68,0,0,1-3.73,7.47c-.25.26-4.9,5-8.21,3.73-4-1.47-4.34-10.8-3.36-17.17,1.52-9.94,5.86-9.68,8.58-20.91,1.94-8,1.21-14.18.38-21.27-.54-4.57-1.25-6.69-2.62-8.59-2.64-3.67-5.6-3.53-6.34-6.35C156.34,136.86,161.1,132.52,162.24,131.48Z"/><path class="cls-16" d="M150.26,202.78a6.43,6.43,0,0,0,.62.24c1.05.32,1.49.21,2.17.41a2.85,2.85,0,0,1,1.69,1.22,2.76,2.76,0,0,1-.37,2.61c-.87,1.29-2.38,1.35-4.48,1.87-3.33.82-7.2,2.57-7.1,3.73.09,1,3.11,1,3.74,3a2.77,2.77,0,0,1,0,1.49"/><path class="cls-17" d="M148.39,193.64a9.7,9.7,0,0,1-2.24,2.83c-1.19,1.05-2.25,1.46-2.24,2.21,0,.45.51.83,1.5,1.58a23.5,23.5,0,0,0,4.85,2.52"/><path class="cls-18" d="M145.41,217a1.91,1.91,0,0,0-.75,1.12,16.43,16.43,0,0,0-.75,5.22c.12,2.64.19,4,1.12,4.48a2.27,2.27,0,0,0,1.87,0c1.85-.78,2.1-3.69,2.24-5.22.15-1.69.36-4.12-1.12-5.23A2.52,2.52,0,0,0,145.41,217Z"/><path class="cls-18" d="M148,128.31c-1.36,1.09-.26,4.64-1.07,10.08a22.14,22.14,0,0,1-2.14,7.09c-1.8,3.31-3.78,3.7-5.36,5.23-5,4.86-5.74,21-.8,31.73,1.14,2.45,4,8.62,9.1,9.7,6.91,1.46,12-7.61,12.58-8.58,6-10.87,3.67-28.43-1.6-32.85-1.54-1.3-3.58-1.67-5.62-4.86a20.59,20.59,0,0,1-2.68-7.09c-.93-5.39.57-9.28-.8-10.45A1.27,1.27,0,0,0,148,128.31Z"/></svg>