<svg id="Layer_1" data-name="Layer 1" xmlns="http://www.w3.org/2000/svg" viewBox="0 0 305 232"><defs><style>.cls-1,.cls-4{fill:#010101;}.cls-1,.cls-2,.cls-3,.cls-4,.cls-7{stroke:#323232;}.cls-1,.cls-2,.cls-3,.cls-4,.cls-5,.cls-7{stroke-miterlimit:10;}.cls-1,.cls-2,.cls-3,.cls-5{stroke-width:5px;}.cls-2{fill:#040303;}.cls-4{stroke-width:3px;}.cls-5{fill:#d5c17d;stroke:#323131;}.cls-6{fill:none;stroke:#000;stroke-linecap:round;stroke-linejoin:round;stroke-width:6px;}.cls-7{fill:#050b0a;stroke-width:5.99px;}.cls-8{fill:#7c6d61;opacity:0.94;}</style></defs><title>impatiens_flight</title><path class="cls-1" d="M114.84,142.4c-.13,3.11-3.12,4.13-7.3,8.21-5.18,5.07-5.25,8.08-10.61,11.22-1.42.84-3.67,2.13-4.82,1.3-1.71-1.24.15-6.49.48-7.35,4.36-11.1,17.32-19.6,21-16.88C114.94,139.89,114.86,142.12,114.84,142.4Z"/><path class="cls-1" d="M93.32,163.38c-.23.77-.95,2.19-2.17,2.19a1.6,1.6,0,0,1-1.5-.9c-.3-.91,1-2,1.82-2.58.62-.49,1.25-1,1.66-.77S93.51,162.7,93.32,163.38Z"/><path class="cls-1" d="M91.73,165.59c-.3.74-1.16,2.09-2.37,2a1.62,1.62,0,0,1-1.41-1c-.21-.94,1.22-1.85,2.07-2.39.66-.42,1.34-.85,1.72-.6S92,164.94,91.73,165.59Z"/><path class="cls-1" d="M89.84,167.65c-.31.74-1.17,2.09-2.37,2a1.61,1.61,0,0,1-1.41-1c-.21-.94,1.22-1.85,2.07-2.39.66-.42,1.34-.85,1.72-.6S90.1,167,89.84,167.65Z"/><path class="cls-1" d="M88.26,169.43c-.17.78-.79,2.25-2,2.34A1.6,1.6,0,0,1,84.7,171c-.37-.89.89-2,1.63-2.71.58-.52,1.17-1.06,1.6-.88S88.41,168.74,88.26,169.43Z"/><path class="cls-1" d="M86,171.65a9.27,9.27,0,0,1-4,2.61c-.93.27-2,.35-2.11,0-.21-.54,2.2-1.93,3.63-2.75a9.73,9.73,0,0,1,2.83-1.33C87,170.17,86.54,171.06,86,171.65Z"/><path class="cls-1" d="M169.21,130.87c2.47-.31,4.06,7,4.14,11.89,0,1.77.15,9.08-3,10.8-2,1.08-4.66-.35-6-2.12C159.87,145.65,165.88,131.29,169.21,130.87Z"/><path class="cls-1" d="M144.67,162.54c-.13,3.11-3.12,4.13-7.3,8.21-5.19,5.07-5.26,8.08-10.61,11.22-1.42.84-3.67,2.13-4.82,1.3-1.72-1.24.14-6.49.48-7.35,4.35-11.1,17.31-19.6,21-16.88C144.77,160,144.68,162.26,144.67,162.54Z"/><path class="cls-1" d="M154.25,141.56c1.79,1.74,1.55,4.34,1.22,7.8s-.73,7.62-4.11,10.15a10.45,10.45,0,0,1-6.71,1.86c-1.15-.05-4.29-.18-4.84-1.68s2.29-2.49,3.77-6.49c.63-1.69.78-3.41,1.09-6.87.3-3.27.07-3.8.67-4.59C147,139.6,151.84,139.22,154.25,141.56Z"/><path class="cls-1" d="M123.14,183.52c-.22.77-1,2.19-2.16,2.19a1.61,1.61,0,0,1-1.5-.89c-.3-.92,1-2,1.82-2.59.62-.48,1.25-1,1.65-.77S123.34,182.85,123.14,183.52Z"/><path class="cls-1" d="M121.55,185.73c-.3.75-1.16,2.09-2.37,2a1.59,1.59,0,0,1-1.4-1c-.21-.94,1.22-1.85,2.07-2.39.66-.42,1.33-.85,1.72-.6S121.82,185.08,121.55,185.73Z"/><path class="cls-1" d="M119.66,187.79c-.3.75-1.16,2.09-2.37,2a1.61,1.61,0,0,1-1.41-1c-.2-.94,1.23-1.85,2.08-2.39.66-.42,1.33-.85,1.72-.6S119.92,187.14,119.66,187.79Z"/><path class="cls-1" d="M118.09,189.57c-.17.78-.79,2.25-2,2.34a1.61,1.61,0,0,1-1.57-.79c-.36-.89.89-2,1.64-2.71.58-.52,1.17-1.06,1.59-.88S118.24,188.88,118.09,189.57Z"/><path class="cls-1" d="M115.86,191.79a9.27,9.27,0,0,1-4,2.61c-.93.27-2,.35-2.11,0-.21-.54,2.19-1.93,3.62-2.75a9.38,9.38,0,0,1,2.83-1.32C116.85,190.31,116.36,191.2,115.86,191.79Z"/><path class="cls-2" d="M107.48,170.78a11.6,11.6,0,0,1-7.56-.41c-1.34-.57-2.63-1.77-5.16-4.16-3.13-3-4.69-4.44-5.14-5.57-1.91-4.77,1.59-9.66,2.07-10.3.67-.91,1.9-2.56,3.53-2.56,1.4,0,2.41,1.23,3,1.82,4.47,4.89,9.92,2.58,14,7.5.52.62,3.1,3.73,2.37,7.29C113.64,168.87,108.16,170.58,107.48,170.78Z"/><path class="cls-2" d="M126.43,162.66c-.88,2.48-4.14,4.33-6.74,5.79a24.3,24.3,0,0,1-5.84,2.37,7,7,0,0,1-1.76.05,7.66,7.66,0,0,1-2.37-.74c-2.57-1.31-23.43-15.38-22.19-23a29.18,29.18,0,0,1,.94-3.77,26.29,26.29,0,0,1,1.63-3.94c.44-.84,3.21-6.16,6.49-7.16,2.93-.88,5.86,1.76,14.92,10.86C125,156.66,127.46,159.76,126.43,162.66Z"/><path class="cls-2" d="M134.27,154.41c-.71,2.44-3,4.68-4.49,6.2-1.68,1.67-3.31,3.29-5.32,4-1.22.42-4.06.84-17.15-8.34-2.63-1.84-5.14-3.7-8-6.1-8.47-7.18-9.07-10.07-8.86-11.7a20,20,0,0,1,.87-3.26,22,22,0,0,1,1.71-3.69c1.83-3.19,3-5.53,4.81-6.49,4.13-2.15,8.68-.17,12.39,1.43,5.83,2.52,9.26,6,13.57,10.56C130.53,144,135.72,149.42,134.27,154.41Z"/><path class="cls-2" d="M144.41,148.51c-.4.93-2.31,3-4.86,4.76a19.61,19.61,0,0,1-7.72,3.38,6.67,6.67,0,0,1-1.16,0c-4.36-.19-7.08-4.1-12.47-9.27-1.24-1.19-3.15-2.95-5.66-5l-5.47-6.26c-1.53-1.18-3.77-2.95-6.41-5.23-2.42-2.1-3.64-3.16-3.84-3.9-.77-2.68,1.69-4.59,3.22-12,0-.13,0-.12,0-.18.26-1.24,1.57-6.67,5.63-8.38C118.58,101,150.34,134.7,144.41,148.51Z"/><path class="cls-2" d="M155.83,140.5a21.64,21.64,0,0,1-6.36,7.24c-1.74,1.22-2.95,2.06-4.69,2.17-.81.06-3.31.05-9.1-5.38a55.46,55.46,0,0,1-5.09-5.47c-5-6.08-5.33-5.68-10.44-11.71-8.8-10.37-13.25-15.56-12.55-19.49.88-4.9,6.09-9.16,11.19-9.68,4.41-.44,7.95,2,10.58,4C141.45,111.29,161,131.2,155.83,140.5Z"/><path class="cls-3" d="M209.56,82.16a16.1,16.1,0,0,1,6,6.16,20.59,20.59,0,0,1,2.74,13.51c-.36,2.31-1.36,8.82-5.88,10.56-3.09,1.19-6.31-.4-7.42-1-10.34-5.12-15.75-23.72-9.68-29.32C198.58,79.1,205.24,79.79,209.56,82.16Z"/><path class="cls-4" d="M192.46,158.69c.16,1.18.83,6.13-2.38,9.29-.75.74-2,1.94-3.1,1.63-3.06-.85-2.08-12.07-1.95-13.56.34-3.77.57-6.49,1.77-6.78C188.54,148.85,191.8,153.76,192.46,158.69Z"/><path class="cls-1" d="M177.47,127.35c3-1.62,10,5.63,13.5,11.07,1.25,1.94,6.41,10,3.51,13.53-1.82,2.21-6.26,2-9.22.74C175.52,148.56,173.45,129.53,177.47,127.35Z"/><path class="cls-4" d="M190.13,169.26c.58.55,1.52,1.84,1,2.92a1.59,1.59,0,0,1-1.48.93c-1-.14-1.28-1.81-1.48-2.8-.15-.76-.3-1.55.07-1.82S189.62,168.78,190.13,169.26Z"/><path class="cls-4" d="M191.38,171.68c.52.61,1.33,2,.67,3a1.61,1.61,0,0,1-1.56.79c-.93-.25-1.09-1.93-1.19-2.94-.07-.77-.15-1.57.25-1.8S190.92,171.15,191.38,171.68Z"/><path class="cls-4" d="M192.35,174.3c.53.61,1.33,2,.68,3a1.62,1.62,0,0,1-1.56.78c-.94-.24-1.1-1.93-1.19-2.93-.08-.78-.16-1.58.24-1.81S191.9,173.77,192.35,174.3Z"/><path class="cls-4" d="M193.22,176.51c.62.51,1.65,1.73,1.17,2.85a1.6,1.6,0,0,1-1.4,1c-1-.08-1.41-1.71-1.67-2.68-.21-.76-.42-1.53-.07-1.83S192.68,176.07,193.22,176.51Z"/><path class="cls-4" d="M194.18,179.5a9.25,9.25,0,0,1,.49,4.8c-.18.95-.59,1.93-.94,1.89-.58-.06-.72-2.83-.8-4.48a9.49,9.49,0,0,1,.1-3.12C193.32,178,193.89,178.79,194.18,179.5Z"/><path class="cls-5" d="M159.37,139.4a13.29,13.29,0,0,1-4.47.9c-3.64-.06-6.35-3-14.69-13a154.79,154.79,0,0,1-9.6-12.76c-5.88-8.67-8.8-13.06-8-15.81,1.53-5.46,11.24-9.19,19.31-8.34,20.45,2.17,30.22,33.7,26.55,40.36a25.1,25.1,0,0,1-3.17,4.27A14.89,14.89,0,0,1,159.37,139.4Z"/><path class="cls-5" d="M208,104.64a19.85,19.85,0,0,0-1.69-12c-.54-1.08-2.87-5.49-10.66-10.26-5.84-3.59-18.77-11.5-33-7.37-1.49.43-12.43,3.77-16.66,12.91-7.35,15.9,8.55,43.13,30.36,43.76C193.22,132.14,206.36,116.55,208,104.64Z"/><polyline class="cls-6" points="236.19 78.39 213.66 72.88 207.64 84"/><polyline class="cls-6" points="240.6 99.54 223.27 84.14 212.74 91.15"/><path class="cls-7" d="M188.07,99.13c.08-5.79-4.13-11.47-9.76-13.88-1.64-.71-5.36-2.19-8.39-.51-3.63,2-3.59,7.11-3.58,8.06.07,6.57,5.9,12.75,12.22,14,1.24.24,4.81.92,7.27-1.1C188.12,103.77,188.05,100.68,188.07,99.13Z"/><path class="cls-8" d="M190.81,101.18c1.46-1.74,4.3-3,6.43-2,2,.91,2.86,3.49,3.17,4.36,2.82,8,7.58,15.14,10.79,23,2.9,7.12,7,12.65,15.06,23.71a241.6,241.6,0,0,1,15.27,22.26,30.83,30.83,0,0,1,4.59,12.59c.3,2.65.95,8.27-2,11.33-3.18,3.3-8.7,1.73-11,1.08-3.08-.87-9-3.24-22.1-19.36-1.67-2.07-3.51-4.41-14.37-19.36-5.72-7.87-9.69-9.44-10.23-14.14-.7-6.07,4.33-6.77,6.29-14.71C195.82,117.34,186.13,106.73,190.81,101.18Z"/><path class="cls-8" d="M154.24,86.73c.79-1.27,1-3.31,0-4.48a4.45,4.45,0,0,0-3.2-1.17c-5.34-.26-10.51-1.91-15.83-2.44-4.81-.47-8.88-2-17-5A147.6,147.6,0,0,0,102,68.19a18.49,18.49,0,0,0-8.43-.49c-1.65.32-5.16,1-6.48,3.47-1.41,2.66.53,5.87,1.33,7.21,1.09,1.79,3.57,5.09,15.67,10.33,1.55.67,3.3,1.39,14.28,5.42,5.79,2.13,7.44,4.35,10.38,3.79,3.79-.72,3.31-4.07,7.75-6.84C143.58,86.65,151.74,90.77,154.24,86.73Z"/><path class="cls-8" d="M169.12,83.84c1.71-1.41,2.87-4.15,1.85-6.23-.95-1.91-3.53-2.79-4.4-3.09-8-2.78-15.21-7.43-23.08-10.58-7.14-2.84-12.71-6.8-23.86-14.72A252.49,252.49,0,0,0,97.21,34.3a32.15,32.15,0,0,0-12.63-4.51c-2.64-.3-8.25-1-11.25,1.89-3.23,3.06-1.59,8.43-.9,10.66.92,3,3.37,8.72,19.64,21.52,2.09,1.63,4.45,3.43,19.52,14,7.93,5.59,9.56,9.44,14.25,10,6.06.71,6.68-4.16,14.56-6C152.94,78.9,163.67,88.34,169.12,83.84Z"/><path class="cls-8" d="M187.78,112.29c1.29-.74,3.33-.9,4.47.13a4.5,4.5,0,0,1,1.07,3.24c.08,5.34,1.56,10.56,1.91,15.9.31,4.83,1.69,8.94,4.45,17.18a145.64,145.64,0,0,1,4.9,16.36,18.57,18.57,0,0,1,.21,8.44c-.37,1.64-1.17,5.13-3.68,6.37-2.7,1.32-5.85-.72-7.16-1.57-1.76-1.14-5-3.74-9.81-16-.62-1.57-1.28-3.33-4.95-14.44-1.93-5.85-4.1-7.59-3.44-10.5.85-3.77,4.17-3.18,7.09-7.53C187.5,122.94,183.65,114.66,187.78,112.29Z"/></svg>